<svg xmlns="http://www.w3.org/2000/svg" xmlns:xlink="http://www.w3.org/1999/xlink" width="100" height="108" viewBox="0 0 100 108">
  <defs>
    <clipPath id="clip-path">
      <rect id="States" width="92" height="12" transform="translate(68 775)" fill="none" stroke="rgba(0,0,0,0)" stroke-width="1"/>
    </clipPath>
    <filter id="Rectangle" x="14" y="10" width="72" height="72" filterUnits="userSpaceOnUse">
      <feOffset dy="2" input="SourceAlpha"/>
      <feGaussianBlur stdDeviation="2" result="blur"/>
      <feFlood flood-opacity="0.2"/>
      <feComposite operator="in" in2="blur"/>
      <feComposite in="SourceGraphic"/>
    </filter>
    <filter id="Rectangle-2" x="5" y="0" width="90" height="90" filterUnits="userSpaceOnUse">
      <feOffset dy="1" input="SourceAlpha"/>
      <feGaussianBlur stdDeviation="5" result="blur-2"/>
      <feFlood flood-opacity="0.122"/>
      <feComposite operator="in" in2="blur-2"/>
      <feComposite in="SourceGraphic"/>
    </filter>
    <filter id="Rectangle-3" x="12.5" y="10.5" width="75" height="75" filterUnits="userSpaceOnUse">
      <feOffset dy="4" input="SourceAlpha"/>
      <feGaussianBlur stdDeviation="2.5" result="blur-3"/>
      <feFlood flood-opacity="0.141"/>
      <feComposite operator="in" in2="blur-3"/>
      <feComposite in="SourceGraphic"/>
    </filter>
    <linearGradient id="linear-gradient" x2="1" y2="1" gradientUnits="objectBoundingBox">
      <stop offset="0" stop-color="#4fb948"/>
      <stop offset="1" stop-color="#a8e063"/>
    </linearGradient>
  </defs>
  <g id="Buttons_gradient_btn" data-name="Buttons/gradient_btn" transform="translate(0 8)">
    <rect id="States-2" data-name="States" width="100" height="100" fill="none"/>
    <g id="text_button" transform="translate(-64 -695)" clip-path="url(#clip-path)">
      <text id="Text" transform="translate(68 771)" fill="rgba(0,0,0,0.87)" font-size="12" font-family="NotoSansKR-Medium, Noto Sans KR" font-weight="500" letter-spacing="0.033em"><tspan x="27.496" y="14">앱 설정</tspan></text>
    </g>
    <g id="btn" transform="translate(-64 -694)">
      <g id="Elevation_00dp" data-name="Elevation/00dp" transform="translate(84 700)">
        <g id="Shadow" style="mix-blend-mode: multiply;isolation: isolate">
          <g transform="matrix(1, 0, 0, 1, -20, -14)" filter="url(#Rectangle)">
            <rect id="Rectangle-4" data-name="Rectangle" width="60" height="60" rx="16" transform="translate(20 14)" fill="#fff"/>
          </g>
          <g transform="matrix(1, 0, 0, 1, -20, -14)" filter="url(#Rectangle-2)">
            <rect id="Rectangle-5" data-name="Rectangle" width="60" height="60" rx="16" transform="translate(20 14)" fill="#fff"/>
          </g>
          <g transform="matrix(1, 0, 0, 1, -20, -14)" filter="url(#Rectangle-3)">
            <rect id="Rectangle-6" data-name="Rectangle" width="60" height="60" rx="16" transform="translate(20 14)" fill="#fff"/>
          </g>
        </g>
      </g>
      <rect id="bg_gradient_btn" width="60" height="60" rx="16" transform="translate(84 700)" fill="url(#linear-gradient)"/>
      <g id="icon" transform="translate(94 710)">
        <path id="패스_11643" data-name="패스 11643" d="M0,0H40V40H0Z" fill="none"/>
        <path id="패스_11644" data-name="패스 11644" d="M30.125,19.967a11.79,11.79,0,0,0,.1-1.567,9.628,9.628,0,0,0-.117-1.567L33.492,14.2a.818.818,0,0,0,.2-1.017l-3.2-5.533a.814.814,0,0,0-.983-.367l-3.983,1.6a11.774,11.774,0,0,0-2.7-1.567l-.6-4.233a.806.806,0,0,0-.8-.683h-6.4a.789.789,0,0,0-.783.683l-.6,4.233a12.034,12.034,0,0,0-2.7,1.567l-3.983-1.6a.8.8,0,0,0-.983.367L2.792,13.183a.758.758,0,0,0,.2,1.017l3.383,2.633a9.272,9.272,0,0,0-.033,3.133L2.959,22.6a.818.818,0,0,0-.2,1.017l3.2,5.533a.814.814,0,0,0,.983.367l3.983-1.6a11.774,11.774,0,0,0,2.7,1.567l.6,4.233a.819.819,0,0,0,.8.683h6.4a.777.777,0,0,0,.783-.683l.6-4.233a11.431,11.431,0,0,0,2.7-1.567l3.983,1.6a.8.8,0,0,0,.983-.367l3.2-5.533a.771.771,0,0,0-.2-1.017ZM18.225,24.4a6,6,0,1,1,6-6A6.018,6.018,0,0,1,18.225,24.4Z" transform="translate(1.775 1.6)" fill="#fff"/>
      </g>
    </g>
  </g>
</svg>
